<svg xmlns="http://www.w3.org/2000/svg" xmlns:xlink="http://www.w3.org/1999/xlink" width="143" height="143" viewBox="0 0 143 143"><defs><clipPath id="a"><rect width="67" height="70.529" fill="#e0592a"></rect></clipPath></defs><g transform="translate(38 36)"><circle cx="71.5" cy="71.5" r="71.5" transform="translate(-38 -36)" fill="#fff"></circle><g clip-path="url(#a)"><path d="M24,43.866H19.865a2.339,2.339,0,0,1-2.336-2.336V39.225a.31.31,0,0,0-.239-.293,17.511,17.511,0,0,1-4.11-1.707.282.282,0,0,0-.343.034L11.19,38.9a2.337,2.337,0,0,1-3.3,0L4.962,35.98a2.336,2.336,0,0,1,0-3.3l1.646-1.647a.28.28,0,0,0,.034-.343,17.533,17.533,0,0,1-1.707-4.11.31.31,0,0,0-.293-.239H2.336A2.339,2.339,0,0,1,0,24V19.865a2.339,2.339,0,0,1,2.336-2.336H4.642a.309.309,0,0,0,.293-.239,17.536,17.536,0,0,1,1.707-4.11.282.282,0,0,0-.034-.343L4.962,11.19a2.336,2.336,0,0,1,0-3.3L7.886,4.962a2.337,2.337,0,0,1,3.3,0l1.646,1.646a.281.281,0,0,0,.343.034,17.536,17.536,0,0,1,4.109-1.707.309.309,0,0,0,.24-.293V2.336A2.339,2.339,0,0,1,19.865,0H24a2.339,2.339,0,0,1,2.336,2.336V4.642a.308.308,0,0,0,.239.293,17.542,17.542,0,0,1,4.109,1.708.282.282,0,0,0,.344-.034l1.646-1.647a2.335,2.335,0,0,1,3.3,0l.309.309a1.033,1.033,0,0,1-1.461,1.461c-.191-.165-.435-.567-.692-.309L32.49,8.069a2.354,2.354,0,0,1-2.833.365,15.486,15.486,0,0,0-3.625-1.506,2.383,2.383,0,0,1-1.762-2.287v-2.3a.27.27,0,0,0-.27-.27H19.865a.27.27,0,0,0-.27.27V4.642a2.384,2.384,0,0,1-1.762,2.287,15.47,15.47,0,0,0-3.625,1.505,2.354,2.354,0,0,1-2.832-.365L9.729,6.423a.269.269,0,0,0-.382,0L6.423,9.348a.269.269,0,0,0,0,.382l1.647,1.647a2.353,2.353,0,0,1,.365,2.832,15.482,15.482,0,0,0-1.506,3.625A2.382,2.382,0,0,1,4.642,19.6H2.336a.271.271,0,0,0-.27.27V24a.27.27,0,0,0,.27.27H4.642a2.383,2.383,0,0,1,2.287,1.762,15.442,15.442,0,0,0,1.506,3.625,2.354,2.354,0,0,1-.365,2.833L6.423,34.137a.264.264,0,0,0-.079.191.268.268,0,0,0,.079.191l2.924,2.924a.27.27,0,0,0,.382,0L11.376,35.8a2.354,2.354,0,0,1,2.833-.365,15.474,15.474,0,0,0,3.625,1.506A2.383,2.383,0,0,1,19.6,39.225v2.3a.27.27,0,0,0,.27.27H24a.27.27,0,0,0,.27-.27v-2.3a2.383,2.383,0,0,1,1.762-2.287,1.033,1.033,0,0,1,.543,1.993.31.31,0,0,0-.239.294v2.3A2.339,2.339,0,0,1,24,43.866" fill="#e0592a"></path><path d="M88.535,98.228a9.75,9.75,0,0,1,13.2-9.1A1.033,1.033,0,0,1,101,91.056a7.672,7.672,0,1,0-2.268,14.829,1.033,1.033,0,0,1,.122,2.063,9.748,9.748,0,0,1-10.317-9.721" transform="translate(-76.339 -76.294)" fill="#e0592a"></path><path d="M137.7,100.052l-10.468-2.036V95.43a10.927,10.927,0,0,0,4.878-8.035,2.971,2.971,0,0,0,2.73-2.958V82.313a2.817,2.817,0,0,0-.48-5.324V76.17a13.342,13.342,0,0,0-13.341-13.342H119.9a13.341,13.341,0,0,0-13.341,13.341v.82a2.817,2.817,0,0,0-.48,5.324v2.123a2.971,2.971,0,0,0,2.73,2.958,10.9,10.9,0,0,0,3.664,7.1,13.621,13.621,0,0,0,1.213.934v2.586l-10.468,2.036c-5.523,1.074-9.828,4.188-9.828,9.932v10.509a4.21,4.21,0,0,0,4.21,4.21h45.716a4.21,4.21,0,0,0,4.21-4.21V109.984c0-5.726-4.278-8.853-9.828-9.932m-8.6.433c-.75,1.091-1.9,2.756-3.135,4.549a1.5,1.5,0,0,1-1.764.612l-1.632-.979c1.592-.94,3.794-2.554,4.462-4.585Zm-8.641,2.977c-1.569-.79-4.7-2.742-4.706-4.586V96.57a11.863,11.863,0,0,0,9.412,0v2.3c0,1.848-3.135,3.8-4.706,4.594M108.621,76.169a11.282,11.282,0,0,1,5.816-9.863v1.3a1.033,1.033,0,0,0,2.066,0V65.416a11.2,11.2,0,0,1,2.918-.511v5.109a1.033,1.033,0,0,0,2.066,0V64.9a11.208,11.208,0,0,1,2.919.511V67.6a1.033,1.033,0,0,0,2.066,0v-1.3a11.282,11.282,0,0,1,5.816,9.863v.747H108.621Zm-1.428,2.813h26.524a.748.748,0,0,1,0,1.5H107.193a.748.748,0,0,1,0-1.5m3.613,7.366a1.033,1.033,0,0,0-1.033-1.011c-.172-.042-1.632.269-1.632-.9V82.545h24.629v1.891c0,1.167-1.5.867-1.632.9a1.034,1.034,0,0,0-1.033,1.011,8.91,8.91,0,0,1-3.011,6.582,9.919,9.919,0,0,1-13.275,0,8.908,8.908,0,0,1-3.012-6.582m3.077,13.734c.669,2.03,2.871,3.644,4.463,4.585-1.636.876-1.52,1.138-2.263,1.05a1.629,1.629,0,0,1-1.142-.7c-1.235-1.788-2.378-3.449-3.127-4.537Zm-11.92,22.554H97.6a2.144,2.144,0,0,1-2.144-2.144V109.984c0-3.1,1.407-5.237,4.492-6.715a42.49,42.49,0,0,1,2.018,12.868Zm17.459,0H104.029v-6.5a43.355,43.355,0,0,0-2.157-13.636c1.206-.4.31-.092,7.73-1.586,2.132,3.1,6.112,8.881,8.458,12.215a7.435,7.435,0,0,1,1.361,4.3Zm1.033-9.526a9.714,9.714,0,0,0-.7-1.169c-.793-1.127-1.823-2.605-2.9-4.156a3.1,3.1,0,0,0,.923-.368l2.678-1.606,2.679,1.606a3.1,3.1,0,0,0,.923.368c-1.074,1.549-2.1,3.028-2.9,4.156a9.646,9.646,0,0,0-.7,1.169m25,7.382a2.144,2.144,0,0,1-2.144,2.144h-4.366v-3.9a1.033,1.033,0,0,0-2.066,0v3.9H121.488v-5.2a7.436,7.436,0,0,1,1.361-4.3c1.334-1.9,6.829-9.826,8.459-12.216,7.416,1.493,6.522,1.184,7.73,1.586a45.057,45.057,0,0,0-2.129,12.063,1.033,1.033,0,0,0,2.065.074,41.319,41.319,0,0,1,1.991-11.369c3.085,1.479,4.492,3.619,4.492,6.715Z" transform="translate(-80.523 -54.173)" fill="#e0592a"></path></g></g></svg>