<?xml version="1.0" encoding="utf-8"?>
<!-- Generator: Adobe Illustrator 26.0.1, SVG Export Plug-In . SVG Version: 6.00 Build 0)  -->
<svg version="1.1" id="Layer_1" xmlns="http://www.w3.org/2000/svg" xmlns:xlink="http://www.w3.org/1999/xlink" x="0px" y="0px"
	 viewBox="0 0 80 80" style="enable-background:new 0 0 80 80;" xml:space="preserve">
<style type="text/css">
	.st0{fill:#C24800;}
	.st1{fill:#FFFFFF;}
</style>
<g>
	<g>
		<circle class="st0" cx="40" cy="40" r="39.5"/>
	</g>
	<g>
		<path class="st1" d="M20.7,28.2c0.2-0.8,0.4-1.7,0.6-2.5c0.6-1.8,1.7-3.4,2.9-4.9c0,0,0.1-0.1,0.1-0.2c2,2.4,3.3,4.9,3.6,8
			c0.4-0.3,0.8-0.5,1.3-0.8c3.5-2.3,7.1-4.5,10.6-6.8c0.2-0.1,0.3-0.2,0.5,0c6.2,4,12.5,8,18.7,12c0,0,0.1,0.1,0.2,0.1
			c-0.2,0.3-0.4,0.7-0.7,1c-0.9-0.6-1.8-1.1-2.7-1.7c-5.2-3.3-10.3-6.6-15.6-9.9c-0.2-0.1-0.4-0.1-0.6,0c-3.9,2.6-7.9,5.1-11.9,7.6
			c-0.1,0.1-0.3,0.2-0.3,0.4c-0.3,0.6-0.7,1.1-1.2,1.4C26.1,32,26,32.2,26,32.3c0.1,0.7,0.2,1.4,0.3,2.2c0.2-0.1,0.3-0.2,0.4-0.2
			c4.3-2.8,8.6-5.5,12.9-8.3c0.3-0.2,0.4-0.2,0.7,0c5,3.3,10.1,6.5,15.2,9.8c0.2,0.1,0.3,0.3,0.3,0.6c0,7.1,0,14.2,0,21.4
			c0,0.2,0,0.3,0,0.5c1.2,0,2.4,0,3.6,0c0,0.4,0,0.8,0,1.2c-1.6,0-3.2,0-4.8,0c0-0.2,0-0.3,0-0.5c0-7.3,0-14.6,0-21.9
			c0-0.3-0.1-0.5-0.4-0.7c-4.6-3-9.3-5.9-13.9-8.9c-0.3-0.2-0.4-0.2-0.7,0c-4.2,2.8-8.6,5.5-12.8,8.2c-0.3,0.2-0.3,0.3-0.3,0.6
			c0.2,1.6,0.4,3.2,0.6,4.7c0,0.1,0,0.3,0,0.4c0,2.2,0,4.3,0,6.5c0,0.1,0,0.3,0,0.5c0.1-0.1,0.2-0.1,0.3-0.2
			c1.2-0.7,2.4-1.4,3.6-2.1c0.2-0.1,0.3-0.3,0.3-0.5c0-3.3,0-6.7,0-10c0-0.2,0-0.3,0-0.5c5.7,0,11.3,0,16.9,0c0,2.9,0,5.8,0,8.8
			c0.5-0.1,0.9-0.2,1.3-0.3c0.2,0.7,0.4,1.5,0.6,2.2c0.3,1.2,0.6,2.4,0.9,3.5c0.1,0.3,0.2,0.5,0.6,0.4c0.3,0,0.5,0,0.8,0
			c0,3.3,0,6.5,0,9.7c-9.7,0-19.4,0-29.1,0c0-3.3,0-6.4,0-9.7c0.2,0,0.5,0,0.7,0c0.6,0.1,1.1-0.1,1.5-0.5c0.1-0.1,0.2-0.2,0.2-0.3
			c0-2.4,0-4.7,0-7c0,0,0,0,0-0.1c-1.2,0-2.4,0-3.5,0c0,5.8,0,11.7,0,17.5c-0.4,0-0.8,0-1.2,0c0-0.1,0-0.3,0-0.4
			c0-5.9,0-11.7,0-17.6c0-1.1,0.3-2.3,0.4-3.3c0.2-1.9,0.5-3.7,0.7-5.6c0-0.1,0-0.3-0.1-0.3c-1-0.6-1.5-1.5-1.7-2.6
			C20.7,29,20.7,28.6,20.7,28.2z M44.8,39.8c-5.5,3.2-10.9,6.3-16.4,9.5c0,0,0,0,0,0.1c6.3-1.7,12.5-3.3,18.8-5
			C46.5,42.7,45.6,41.2,44.8,39.8z M32.2,49.5L32.2,49.5c6.1,0.1,12.1,0.1,18.2,0.1c-0.4-1.6-0.8-3-1.3-4.6
			C43.5,46.5,37.8,48,32.2,49.5z M33.5,58.1c0-2.5,0-4.8,0-7.2c-2.9,0-5.6,0-8.5,0c0,2.5,0,4.8,0,7.2C27.9,58.1,30.7,58.1,33.5,58.1
			z M39.6,58.1c0-2.5,0-4.8,0-7.2c-1.6,0-3.3,0-4.8,0c0,2.5,0,4.8,0,7.2C36.4,58.1,38,58.1,39.6,58.1z M40.8,58.1c1.6,0,3.3,0,4.8,0
			c0-2.5,0-4.8,0-7.2c-1.6,0-3.3,0-4.8,0C40.8,53.2,40.8,55.6,40.8,58.1z M46.9,50.8c0,2.5,0,4.8,0,7.3c1.6,0,3.3,0,4.8,0
			c0-2.5,0-4.8,0-7.3C50.1,50.8,48.5,50.8,46.9,50.8z M39.6,36.3c-2.3,0-4.4,0-6.6,0c0,1.6,0,3.3,0,4.8c2.3,0,4.4,0,6.6,0
			C39.6,39.5,39.6,37.9,39.6,36.3z M25.1,31.3c0.1,0,0.2,0,0.2,0c1.2-0.4,1.8-1.5,1.6-2.9c-0.3-2.1-1.2-3.8-2.4-5.5
			c0,0-0.1,0-0.1-0.1c-0.8,1-1.9,3.2-2.2,4.5c-0.2,0.8-0.3,1.5-0.1,2.3c0.2,0.9,1,1.7,1.8,1.7c0-0.8,0-1.5,0-2.3c0.4,0,0.8,0,1.2,0
			C25.1,29.7,25.1,30.5,25.1,31.3z M40.8,40.6c1.5-0.9,3-1.7,4.3-2.5c0.8,1.3,1.5,2.6,2.3,3.9c0-2,0-3.8,0-5.8c-2.3,0-4.4,0-6.6,0
			C40.8,37.7,40.8,39.2,40.8,40.6z M23.8,32.6c-0.4,2.7-0.7,5.2-1.1,7.9c1.2,0,2.3,0,3.4,0c-0.4-2.7-0.7-5.3-1.1-7.9
			C24.7,32.6,24.2,32.6,23.8,32.6z M33,45.2c1.7-1,3.3-1.9,4.8-2.8c0,0,0,0,0-0.1c-1.6,0-3.2,0-4.7,0c0,0.1,0,0.1,0,0.2
			C33,43.4,33,44.3,33,45.2z"/>
		<path class="st1" d="M29.3,52.1c1.4,0,2.5,1.1,2.5,2.5s-1.1,2.5-2.5,2.5c-1.3,0-2.4-1.1-2.5-2.4C26.8,53.2,27.9,52.1,29.3,52.1z
			 M30.5,54.4c0-0.7-0.5-1.2-1.2-1.2s-1.2,0.5-1.2,1.2s0.5,1.3,1.2,1.3C29.9,55.7,30.5,55.1,30.5,54.4z"/>
	</g>
</g>
</svg>
